<?xml version="1.0" encoding="UTF-8"?><svg id="_Ñëîé_1" xmlns="http://www.w3.org/2000/svg" viewBox="0 0 6000 3000"><defs><style>.cls-1{fill:#c228b6;}.cls-1,.cls-2,.cls-3{stroke-width:0px;}.cls-2{fill:#b7daf7;}.cls-3{fill:#fcf5d9;}</style></defs><path class="cls-3" d="M350.95,3000h36.61c-12.39-1.5-24.64-1.61-36.61,0Z"/><path class="cls-2" d="M5516.06,3000h483.94v-8.3h-473.39c-3.54,2.69-7.06,5.46-10.55,8.3Z"/><path class="cls-2" d="M1249.52,1088.79c-1.48,1.31-2.93,2.66-4.37,4.04,1.43-1.38,2.89-2.73,4.37-4.04Z"/><path class="cls-2" d="M1268.32,1074.79c-6.6,4.11-12.89,8.77-18.8,14.01,5.91-5.24,12.2-9.89,18.8-14.01Z"/><path class="cls-2" d="M1243.02,1094.94c-1.41,1.42-2.79,2.88-4.15,4.38,1.36-1.5,2.74-2.96,4.15-4.38Z"/><path class="cls-2" d="M1281.06,1067.69c-4.36,2.16-8.62,4.52-12.74,7.09,4.13-2.57,8.38-4.93,12.74-7.09Z"/><path class="cls-2" d="M1375.76,1957.14c5.27,17.23,10.47,34.49,15.5,51.79-5.03-17.3-10.23-34.56-15.5-51.79Z"/><path class="cls-2" d="M2189.45,1238.11c-4.74.11-9.48.18-14.21.21,4.74-.03,9.48-.1,14.21-.21Z"/><path class="cls-2" d="M1443.57,2293.41c.06,3.5.08,7,.07,10.5,0-3.5-.02-7-.07-10.5Z"/><path class="cls-2" d="M1526.64,1073.82c-4.62-1.46-9.34-2.89-14.14-4.3,4.8,1.4,9.52,2.84,14.14,4.3Z"/><path class="cls-2" d="M1297.23,1060.76c-5.54,2.04-10.93,4.34-16.17,6.93,5.24-2.59,10.63-4.9,16.17-6.93Z"/><path class="cls-2" d="M1550.6,1081.86c-3.39-1.21-6.86-2.41-10.39-3.61,3.54,1.2,7,2.4,10.39,3.61Z"/><path class="cls-2" d="M1534.86,1076.47c-2.7-.89-5.44-1.77-8.22-2.65,2.77.88,5.51,1.76,8.22,2.65Z"/><path class="cls-2" d="M1506.69,1067.86c-2.92-.82-5.87-1.63-8.84-2.43,2.97.79,5.92,1.6,8.84,2.43Z"/><path class="cls-2" d="M1512.49,1069.52c-1.92-.56-3.85-1.12-5.8-1.66,1.95.55,3.88,1.1,5.8,1.66Z"/><path class="cls-2" d="M1238.87,1099.31c-1.36,1.5-2.69,3.03-4,4.61,1.31-1.57,2.64-3.11,4-4.61Z"/><path class="cls-2" d="M275.58,1388.16c-2.26-10.54-4.5-21.09-6.71-31.65,2.21,10.56,4.45,21.11,6.71,31.65Z"/><path class="cls-2" d="M259.09,1308.96c-3.2-15.86-6.35-31.74-9.45-47.63,3.1,15.89,6.24,31.77,9.45,47.63Z"/><path class="cls-2" d="M268.87,1356.51c-3.32-15.83-6.57-31.68-9.78-47.55,3.2,15.86,6.46,31.71,9.78,47.55Z"/><path class="cls-2" d="M1301.13,2656.34c-3.97,3.63-8,7.17-12.1,10.62,4.1-3.45,8.13-6.99,12.1-10.62Z"/><path class="cls-2" d="M155.53,681.09c-3.96-29.75-7.74-59.5-11.3-89.26,3.56,29.76,7.34,59.51,11.3,89.26Z"/><path class="cls-2" d="M107.82,84.46c-.02-.8-.03-1.76-.03-2.86,0,1.11.01,2.07.03,2.86Z"/><path class="cls-2" d="M246.57,1245.44c-7.14-37.1-14.01-74.26-20.63-111.48,6.62,37.22,13.49,74.38,20.63,111.48Z"/><path class="cls-2" d="M282.45,1419.76c-2.32-10.53-4.61-21.06-6.87-31.6,2.26,10.54,4.55,21.08,6.87,31.6Z"/><path class="cls-2" d="M1272.32,2680.28c-2.84,2.14-5.7,4.23-8.59,6.29,2.89-2.05,5.75-4.15,8.59-6.29Z"/><path class="cls-2" d="M1284.91,2670.38c-4.14,3.39-8.33,6.69-12.59,9.9,4.26-3.21,8.45-6.51,12.59-9.9Z"/><path class="cls-2" d="M1241.63,2701.18c-3.01,1.84-6.03,3.64-9.08,5.39,3.05-1.75,6.08-3.55,9.08-5.39Z"/><path class="cls-2" d="M1250.58,2695.53c-2.96,1.93-5.94,3.81-8.95,5.65,3.01-1.84,5.99-3.72,8.95-5.65Z"/><path class="cls-2" d="M2239.19,1235.29c-9.47.86-18.95,1.52-28.42,2.01,9.47-.49,18.95-1.16,28.42-2.01Z"/><path class="cls-2" d="M2845.14,449.06s0,.01,0,.02c0,0,0-.01,0-.02Z"/><path class="cls-2" d="M2694.34,980.43c-2.64,3.75-5.33,7.46-8.04,11.15,2.72-3.68,5.4-7.4,8.04-11.15Z"/><path class="cls-2" d="M2734.69,915.97c-2.25,4.06-4.53,8.09-6.85,12.1,2.32-4.01,4.6-8.04,6.85-12.1Z"/><path class="cls-2" d="M2682.19,997.08c-2.76,3.65-5.55,7.27-8.38,10.86,2.83-3.59,5.62-7.21,8.38-10.86Z"/><path class="cls-2" d="M2660.84,1023.87c-2.94,3.49-5.92,6.94-8.93,10.37,3.01-3.42,5.99-6.88,8.93-10.37Z"/><path class="cls-2" d="M2210.77,1237.31c-7.11.37-14.21.63-21.32.8,7.11-.17,14.21-.44,21.32-.8Z"/><path class="cls-2" d="M2623.77,1064.07c-3.24,3.21-6.52,6.38-9.83,9.51,3.31-3.13,6.59-6.3,9.83-9.51Z"/><path class="cls-2" d="M5603.64,96.08c3.96.57,7.92,1.16,11.88,1.76-3.96-.62-7.92-1.19-11.88-1.76Z"/><path class="cls-2" d="M5891.43,156.24c7.36,2.02,14.72,4.09,22.04,6.16-7.33-2.1-14.66-4.15-22.04-6.16Z"/><path class="cls-2" d="M3813.74,33.51c0-2.76-.06-5.51-.11-8.27.06,2.73.08,5.51.11,8.27Z"/><path class="cls-2" d="M5924.46,165.59c18.25,5.31,36.31,10.82,54.2,16.53-17.86-5.74-35.95-11.25-54.2-16.53Z"/><path class="cls-2" d="M2845.05,434.15c0,.06,0,.12,0,.18,0-.06,0-.12,0-.18Z"/><path class="cls-2" d="M3451.73,152.18c.36,3.04.73,6.11,1.07,9.17-.34-3.07-.67-6.11-1.07-9.17Z"/><path class="cls-2" d="M2647.36,1039.34c-3.05,3.39-6.14,6.74-9.27,10.05,3.13-3.32,6.22-6.67,9.27-10.05Z"/><path class="cls-2" d="M2274.7,1231.19c-4.73.67-9.47,1.29-14.2,1.86,4.73-.57,9.47-1.19,14.2-1.86Z"/><path class="cls-2" d="M2310.18,1225.25c-11.82,2.3-23.65,4.28-35.48,5.95,11.83-1.67,23.66-3.65,35.48-5.95Z"/><path class="cls-2" d="M2345.63,1217.36c-7.08,1.78-14.17,3.44-21.26,4.97,7.09-1.54,14.18-3.19,21.26-4.97Z"/><path class="cls-2" d="M2324.37,1222.33c-4.73,1.03-9.45,2-14.18,2.92,4.73-.92,9.46-1.89,14.18-2.92Z"/><path class="cls-2" d="M2260.5,1233.05c-7.1.85-14.2,1.6-21.31,2.24,7.1-.64,14.21-1.39,21.31-2.24Z"/><path class="cls-2" d="M159.55,710.85c5.43,39.69,11.17,79.41,17.1,119.23,13.53,90.79,27.91,181.53,43.67,271.98-15.76-90.45-30.14-181.18-43.67-271.98-5.93-39.82-11.66-79.54-17.1-119.23Z"/><path class="cls-2" d="M2588.36,1096.35c-3.5,2.94-7.05,5.84-10.63,8.7,3.58-2.86,7.12-5.76,10.63-8.7Z"/><path class="cls-2" d="M2572.34,1109.3c-9.05,7.05-18.34,13.84-27.87,20.36,9.53-6.52,18.82-13.31,27.87-20.36Z"/><path class="cls-2" d="M2359.79,1213.63c-4.72,1.3-9.44,2.54-14.16,3.72,4.72-1.19,9.44-2.43,14.16-3.72Z"/><path class="cls-2" d="M2603.88,1082.86c-5.09,4.58-10.26,9.08-15.51,13.49,5.26-4.41,10.43-8.91,15.51-13.49Z"/><path class="cls-2" d="M2544.47,1129.66c-13.34,9.13-27.16,17.74-41.46,25.79,14.3-8.05,28.11-16.66,41.46-25.79Z"/><path class="cls-2" d="M2503.01,1155.46c-8.17,4.6-16.5,9.02-24.98,13.25,8.48-4.23,16.81-8.65,24.98-13.25Z"/><path class="cls-2" d="M2381.03,1207.42c-7.07,2.2-14.15,4.27-21.23,6.21,7.08-1.94,14.16-4.01,21.23-6.21Z"/><path class="cls-2" d="M870.39,2325.73c-54.14-67.06-94.02-153.3-125.52-233.85,31.5,80.55,71.39,166.79,125.52,233.85Z"/><path class="cls-2" d="M5921.96,1418.29c6.82,6.33,13.67,12.67,20.61,19.06-6.94-6.39-13.79-12.76-20.61-19.06Z"/><path class="cls-2" d="M4125.27,2869.22c-.34-.55-.69-1.09-1.03-1.63.34.54.69,1.08,1.03,1.63Z"/><path class="cls-2" d="M5891.63,1390c4.3,4.07,8.66,8.14,13.04,12.21-4.38-4.1-8.72-8.17-13.04-12.21Z"/><path class="cls-2" d="M1101.44,2070.96c.67-.71,1.35-1.42,2.02-2.16-.67.74-1.35,1.45-2.05,2.16h.03Z"/><path class="cls-2" d="M6000,2122.37h0s-.02,0-.02-.01c0,0,.02,0,.02.01Z"/><path class="cls-2" d="M2562.05,540.18c-.7,3.3-1.4,6.59-2.16,9.86.76-3.27,1.49-6.56,2.16-9.86Z"/><path class="cls-2" d="M5171.77,2726.78c2.72-5.07,5.47-10.11,8.24-15.14-2.78,5.02-5.53,10.06-8.24,15.14Z"/><path class="cls-2" d="M1106.69,2065.13c-.76.88-1.52,1.76-2.3,2.64.79-.85,1.57-1.73,2.3-2.64Z"/><path class="cls-2" d="M2539.61,614.14c-.53,1.33-1.09,2.67-1.66,4,.59-1.34,1.12-2.67,1.66-4Z"/><path class="cls-2" d="M1136.21,2005.66c-.67,2.64-1.38,5.25-2.13,7.84.76-2.58,1.49-5.2,2.13-7.84Z"/><path class="cls-2" d="M1138.01,1997.59c-.56,2.73-1.15,5.4-1.8,8.04.65-2.64,1.26-5.31,1.8-8.04Z"/><path class="cls-2" d="M1134.07,2013.5c-.79,2.58-1.6,5.11-2.47,7.64.9-2.53,1.71-5.06,2.47-7.64Z"/><path class="cls-2" d="M1116.07,2052.69c-1.43,2.16-2.95,4.29-4.49,6.36,1.57-2.07,3.06-4.2,4.49-6.36Z"/><path class="cls-2" d="M1305.08,2652.68c6.55-6.15,12.91-12.53,19.08-19.16-6.17,6.62-12.53,13.01-19.08,19.16Z"/><path class="cls-2" d="M5831.98,2002.07s0,0,0,0c-.01-.02-.02-.02-.03-.04,0,.01.02.02.03.04Z"/><path class="cls-2" d="M5981.88,2112.78c.16.09.32.18.48.27.54.32,1.07.62,1.61.92-.54-.31-1.07-.61-1.6-.92-.16-.09-.32-.18-.48-.27Z"/><path class="cls-2" d="M5967.54,2104.05c2.63,1.69,5.27,3.37,7.94,4.97,1.09.66,2.17,1.29,3.25,1.93-1.08-.64-2.16-1.27-3.25-1.93-2.67-1.61-5.31-3.28-7.94-4.97Z"/><path class="cls-2" d="M5927.58,2075.43c1.43,1.1,2.87,2.21,4.29,3.31.65.49,1.29.98,1.94,1.48-.65-.49-1.29-.99-1.94-1.48-1.43-1.1-2.86-2.21-4.3-3.31Z"/><path class="cls-2" d="M5911.54,2062.78c-3.79-3.04-7.55-6.08-11.32-9.12-5.54-4.49-11.07-8.97-16.61-13.37,5.53,4.43,11.07,8.92,16.61,13.37,3.77,3.04,7.53,6.08,11.32,9.12,3.4,2.72,6.82,5.45,10.25,8.12.89.7,1.78,1.4,2.67,2.1-.89-.7-1.77-1.4-2.67-2.11-3.43-2.7-6.85-5.43-10.25-8.12Z"/><path class="cls-2" d="M5991.6,2118.13c.73.38,1.46.77,2.19,1.14.69.35,1.39.7,2.08,1.05-.69-.35-1.39-.7-2.08-1.06-.74-.37-1.47-.76-2.2-1.14Z"/><path class="cls-2" d="M5987.42,2115.89c-.65-.35-1.31-.72-1.97-1.08.65.36,1.31.73,1.97,1.08.06.05.14.08.22.11.1.06.21.11.31.17-.1-.06-.21-.11-.31-.17-.08-.03-.17-.06-.23-.11Z"/><path class="cls-2" d="M5836.42,2004.97c-1.15-.77-2.28-1.5-3.42-2.24,1.14.74,2.27,1.47,3.42,2.24,1.46.96,2.89,1.96,4.35,2.95,4.75,3.27,9.47,6.67,14.17,10.15-4.7-3.48-9.43-6.88-14.17-10.16-1.46-.99-2.89-1.99-4.35-2.95Z"/><path class="cls-2" d="M5877,2035.03c.21.17.42.33.64.5.29.23.59.46.88.69-.29-.23-.58-.47-.87-.7-.21-.17-.43-.33-.64-.5Z"/><path class="cls-2" d="M5277.94,1889.09c-61.74,4.36-109.26-11.53-143.62-40.31,34.36,28.78,81.88,44.67,143.62,40.32,52.37-3.7,103.19-5.06,152.95-3.1-49.76-1.96-100.58-.6-152.95,3.1Z"/><path class="cls-2" d="M5628.6,1467.3c-22.86-16.46-46.12-32.23-70.14-46.6-7.69-4.6-15.57-9.05-23.62-13.31,8.05,4.27,15.93,8.71,23.62,13.31,24.02,14.37,47.28,30.14,70.14,46.6Z"/><path class="cls-2" d="M5816.05,1992.25c1.4.8,2.8,1.62,4.19,2.47.8.46,1.58.94,2.37,1.42-.79-.48-1.58-.96-2.37-1.42-1.4-.85-2.8-1.66-4.2-2.47Z"/><path class="cls-2" d="M5064.89,1657.04c1.19-22.41,4.61-45.18,10.17-67.7-5.57,22.52-8.99,45.3-10.17,67.7Z"/><path class="cls-2" d="M5826.28,1998.4c.08.05.17.1.25.16.05.03.11.07.16.1-.05-.03-.1-.07-.16-.1-.09-.05-.17-.1-.26-.16Z"/><path class="cls-2" d="M5831.84,2001.96c-.11-.07-.22-.14-.34-.22.11.07.22.14.33.22.03,0,.05,0,.07.02-.02-.02-.04-.03-.07-.03Z"/><path class="cls-2" d="M1127.25,2032.18c-2.13,4.8-4.49,9.43-7.08,13.92,2.61-4.49,4.97-9.12,7.08-13.92Z"/><path class="cls-2" d="M372.1,453.48c.65,5.51,1.3,11.03,1.97,16.54.74,6.39,1.52,12.77,2.29,19.15-.78-6.38-1.55-12.76-2.29-19.14-.67-5.51-1.32-11.03-1.97-16.54Z"/><path class="cls-2" d="M360.93,355.01c-5.75-52.7-11.13-105.45-16.23-158.18,5.09,52.73,10.47,105.48,16.22,158.18,1.04,9.69,2.11,19.4,3.23,29.09,1.65,14.93,3.35,29.84,5.08,44.74-1.72-14.9-3.42-29.81-5.08-44.74-1.12-9.69-2.19-19.4-3.23-29.09Z"/><path class="cls-2" d="M377.01,494.58c.62,5.19,1.27,10.36,1.92,15.55.54,4.44,1.11,8.89,1.66,13.34-.55-4.45-1.12-8.9-1.66-13.34-.65-5.19-1.3-10.36-1.92-15.55Z"/><path class="cls-2" d="M444.7,957.62c2.21,12.77,4.45,25.52,6.74,38.27.89,5.08,1.82,10.16,2.74,15.24-.92-5.08-1.84-10.16-2.74-15.25-2.29-12.75-4.52-25.5-6.74-38.27Z"/><path class="cls-2" d="M327.44,4.93c.09,1.1.19,2.19.27,3.29,1,11.96,2.04,23.94,3.06,35.89.23,2.66.46,5.32.69,7.97-.23-2.66-.46-5.32-.69-7.98-1.12-13.04-2.24-26.11-3.33-39.18Z"/><path class="cls-2" d="M408.67,731.71c-.32-2.14-.63-4.27-.94-6.41.31,2.14.62,4.28.93,6.41,1.07,7.36,2.16,14.71,3.26,22.1,1.04,6.93,2.07,13.85,3.12,20.77-1.04-6.92-2.08-13.84-3.12-20.77-1.1-7.38-2.19-14.74-3.26-22.1Z"/><path class="cls-2" d="M399.85,669.7c-.74-5.18-1.46-10.36-2.18-15.55.72,5.19,1.43,10.37,2.17,15.55,1.83,13.33,3.71,26.61,5.62,39.91.24,1.63.47,3.25.7,4.87-.23-1.62-.47-3.25-.7-4.87-1.91-13.29-3.79-26.59-5.62-39.91Z"/><path class="cls-2" d="M382.68,540.22c.8,6.42,1.6,12.82,2.43,19.22.24,1.84.47,3.69.71,5.54-.24-1.84-.47-3.69-.71-5.53-.83-6.4-1.63-12.8-2.43-19.22Z"/><path class="cls-2" d="M388.41,585.14c.7,5.33,1.39,10.64,2.12,15.96.09.69.19,1.38.28,2.08-.09-.69-.19-1.38-.28-2.07-.72-5.33-1.42-10.64-2.12-15.97Z"/><path class="cls-2" d="M335.68,99.87c.99,11.02,1.97,22.03,2.98,33.05,1.11,12.21,2.27,24.43,3.43,36.65-1.16-12.23-2.31-24.44-3.42-36.66-1.02-11.02-2-22.04-2.98-33.05Z"/><path class="cls-2" d="M423.54,829.64c-1.23-7.8-2.45-15.6-3.65-23.41,1.21,7.81,2.42,15.61,3.65,23.41Z"/><path class="cls-2" d="M1300.01,1059.77c59.53-20.76,134.42-11.25,197.84,5.67-63.42-16.92-138.31-26.43-197.84-5.67Z"/><path class="cls-2" d="M1443.32,2282.91c-.46-13.98-1.4-27.92-2.81-41.76-7.7-75.72-25.76-150.61-47.1-224.8,21.35,74.19,39.4,149.08,47.1,224.8,1.4,13.84,2.34,27.78,2.81,41.76Z"/><path class="cls-2" d="M2381.03,1207.42c25.94-8.06,51.82-17.84,77.64-29.52,6.54-2.96,12.99-6.03,19.36-9.2-6.36,3.17-12.82,6.24-19.36,9.2-25.82,11.68-51.71,21.46-77.64,29.52Z"/><path class="cls-2" d="M1198.29,1217.39c0-20.93,2.3-41.55,8.41-61.1-6.11,19.55-8.4,40.16-8.41,61.1Z"/><path class="cls-2" d="M2583.81,0h0c.82,2,1.64,4,2.46,6.02-.82-2.01-1.64-4.01-2.45-6.02Z"/><path class="cls-2" d="M744.83,2091.79c-.03-.08-.06-.15-.09-.23.03.08.06.15.09.23Z"/><path class="cls-2" d="M1068.32,1429.3s.02.07.04.1c-.01-.03-.02-.07-.04-.1Z"/><path class="cls-2" d="M2569.49,492.52c-.37,3.35-.73,6.67-1.15,10,.42-3.32.81-6.67,1.15-10Z"/><path class="cls-2" d="M2598.03,36.05c1.4,3.76,2.8,7.52,4.18,11.31-1.37-3.79-2.75-7.55-4.18-11.31Z"/><path class="cls-2" d="M1996.71,1017c-113.14-27.13-203.4-106.06-302.9-166.36-137.55-83.34-331.29-189.37-491.47-130.18-1.65.61-3.29,1.24-4.92,1.88,1.63-.65,3.27-1.27,4.92-1.88,160.19-59.19,353.93,46.84,491.48,130.18,99.49,60.3,189.75,139.23,302.89,166.36,125.08,29.99,254.27,28.71,366.06-8.73-111.8,37.44-240.98,38.72-366.06,8.73Z"/><path class="cls-2" d="M1068.29,1429.2c-49.67-139.19-90.43-286.17-64.18-435.95,11.46-65.35,38.11-129.14,77.17-179.91-39.06,50.77-65.71,114.56-77.17,179.91-26.25,149.78,14.51,296.76,64.18,435.94Z"/><path class="cls-2" d="M531.81,1384.32c1.93,8.22,3.89,16.43,5.87,24.63,46.61,192.67,101.58,386.78,167.06,573.57-65.47-186.79-120.45-380.89-167.06-573.58-1.99-8.19-3.94-16.41-5.88-24.62Z"/><path class="cls-2" d="M1267.13,2001.65c25.98,124.92,28.87,287.11-64.42,386.04-2.74,2.91-5.55,5.7-8.42,8.39,2.87-2.68,5.68-5.48,8.42-8.39,93.29-98.93,90.4-261.11,64.42-386.04-17.41-83.68-46.25-163.83-75.85-243.04-8.31-22.25-16.63-44.49-24.97-66.73,8.33,22.23,16.66,44.47,24.96,66.72,29.6,79.22,58.44,159.38,75.85,243.05Z"/><path class="cls-2" d="M2625.85,118.52c1.29,4.32,2.56,8.61,3.79,12.92,1.45,5.03,2.88,10.16,4.29,15.37-1.41-5.21-2.84-10.34-4.29-15.37-1.24-4.32-2.5-8.6-3.79-12.92-1.1-3.61-2.19-7.25-3.31-10.85-1.07-3.44-2.17-6.87-3.27-10.3,1.1,3.43,2.19,6.86,3.26,10.3,1.12,3.61,2.22,7.24,3.31,10.85Z"/><path class="cls-2" d="M2617.71,92.45c-.98-3.04-1.95-6.05-2.95-9.06-.58-1.74-1.15-3.45-1.72-5.17.57,1.72,1.15,3.43,1.72,5.17,1,3.01,1.98,6.03,2.95,9.06Z"/><path class="cls-2" d="M2593.53,24.28c.93,2.4,1.85,4.79,2.77,7.19-.92-2.39-1.84-4.79-2.77-7.19-1.24-3.15-2.48-6.33-3.71-9.49-.83-2.05-1.64-4.07-2.46-6.09.82,2.02,1.63,4.05,2.46,6.09,1.24,3.15,2.47,6.33,3.71,9.49Z"/><path class="cls-2" d="M2608.47,64.87c.85,2.45,1.69,4.89,2.52,7.34-.82-2.44-1.67-4.89-2.51-7.33-.85-2.42-1.69-4.8-2.53-7.22-1.11-3.1-2.22-6.2-3.36-9.27,1.13,3.08,2.25,6.17,3.36,9.27.84,2.41,1.68,4.8,2.53,7.21Z"/><path class="cls-2" d="M2674.52,597.19c-6.29,63.97-21.06,120.41-42.73,169.71,21.67-49.3,36.44-105.74,42.73-169.71,8.65-87.98,5.32-180.13-5.11-265.69,10.43,85.56,13.76,177.71,5.11,265.69Z"/><path class="cls-2" d="M466.67,1078.6c1.69,8.9,3.39,17.8,5.13,26.71.87,4.57,1.77,9.13,2.66,13.7-.89-4.56-1.79-9.13-2.66-13.7-1.74-8.9-3.45-17.8-5.14-26.71Z"/><path class="cls-2" d="M501.86,1252.22c6.75,31.28,13.71,62.5,20.91,93.64,1.71,7.43,3.45,14.86,5.2,22.29-1.75-7.43-3.49-14.86-5.2-22.29-7.2-31.14-14.17-62.36-20.92-93.64Z"/><path class="cls-1" d="M1543.12,2028.27c4.95-99.02,10.99-198.52,21.24-297.08,12.01-115.63,39.25-220.75,124.43-298.7,97.67-89.41,226.43-93.81,347.75-85.52,169.17,11.53,325.08,43.8,484.95-38.97,311.05-161.05,403.13-554.28,430.71-897.82,8.03-100.41,14.01-201.34,11.85-302.17-.7-33.33-2.35-66.61-5.2-99.8-.24-2.74-.48-5.48-.74-8.21h-204.01c1.19,2.73,2.36,5.47,3.52,8.21,1.73,4.09,3.45,8.18,5.14,12.27,1.69,4.09,3.36,8.18,5.01,12.26,46.19,114.72,72.7,246.3,76.8,379.31.23,7.36.38,14.73.47,22.1,0,.06,0,.12,0,.18.06,4.91.09,9.82.08,14.73,0,0,0,.01,0,.02-.02,24.69-.81,49.39-2.4,73.98-.16,2.46-.33,4.92-.5,7.38-4.73,66.35-15.27,131.92-31.98,194.78-.62,2.33-1.25,4.65-1.88,6.97-1.27,4.64-2.58,9.27-3.92,13.88-1.34,4.61-2.71,9.2-4.12,13.78-4.22,13.73-8.75,27.31-13.59,40.71-5.65,15.64-11.72,31.04-18.22,46.18-1.86,4.32-3.75,8.63-5.68,12.91-8.67,19.26-18.06,38.06-28.17,56.32-2.25,4.06-4.53,8.09-6.85,12.1-10.43,18.03-21.6,35.5-33.5,52.36-2.64,3.75-5.33,7.46-8.04,11.15-1.36,1.84-2.73,3.68-4.11,5.5-2.76,3.65-5.55,7.27-8.38,10.86-4.24,5.38-8.57,10.69-12.98,15.93-2.94,3.49-5.92,6.94-8.93,10.37-1.51,1.71-3.02,3.41-4.55,5.11-3.05,3.39-6.14,6.74-9.27,10.05-4.69,4.97-9.46,9.87-14.32,14.68-3.24,3.21-6.52,6.38-9.83,9.51-3.31,3.13-6.67,6.23-10.06,9.28-5.09,4.58-10.26,9.08-15.51,13.49-3.5,2.94-7.05,5.84-10.63,8.7-1.79,1.43-3.59,2.85-5.4,4.26-9.05,7.05-18.34,13.84-27.87,20.36-13.34,9.13-27.16,17.74-41.46,25.79-8.17,4.6-16.5,9.02-24.98,13.25-6.36,3.17-12.82,6.24-19.36,9.2-25.82,11.68-51.71,21.46-77.64,29.52-7.07,2.2-14.15,4.27-21.23,6.21-4.72,1.3-9.44,2.54-14.16,3.72-7.08,1.78-14.17,3.44-21.26,4.97-4.73,1.03-9.45,2-14.18,2.92-11.82,2.3-23.65,4.28-35.48,5.95-4.73.67-9.47,1.29-14.2,1.86-7.1.85-14.2,1.6-21.31,2.24-9.47.86-18.95,1.52-28.42,2.01-7.11.37-14.21.63-21.32.8-4.74.11-9.48.18-14.21.21-7.11.04-14.21-.01-21.32-.15-4.74-.1-9.47-.23-14.21-.41-2.37-.09-4.74-.19-7.1-.29-4.74-.22-9.47-.47-14.21-.76-4.73-.29-9.47-.62-14.2-.99-4.73-.37-9.47-.77-14.2-1.21-30.76-2.86-61.48-7.23-92.14-12.84-4.72-.86-9.43-1.75-14.14-2.67-70.7-13.8-141.01-33.94-210.55-56.93-4.64-1.53-9.27-3.08-13.9-4.64-11.57-3.89-23.12-7.86-34.65-11.88-4.61-1.61-9.22-3.23-13.82-4.85-50.62-17.89-100.77-36.75-150.27-55.21-3.23-1.21-6.55-2.41-9.94-3.62-3.39-1.21-6.86-2.41-10.39-3.61-1.77-.6-3.55-1.19-5.35-1.79-2.7-.89-5.44-1.77-8.22-2.65-4.62-1.46-9.34-2.89-14.14-4.3-1.92-.56-3.85-1.12-5.8-1.66-2.92-.82-5.87-1.63-8.84-2.43-63.42-16.92-138.31-26.43-197.84-5.67-.93.32-1.86.66-2.78,1-5.54,2.04-10.93,4.34-16.17,6.93-4.36,2.16-8.62,4.52-12.74,7.09-6.6,4.11-12.89,8.77-18.8,14.01-1.48,1.31-2.93,2.66-4.37,4.04-.72.69-1.43,1.39-2.13,2.1-1.41,1.42-2.79,2.88-4.15,4.38-1.36,1.5-2.69,3.03-4,4.61-9.14,11.02-17.01,23.95-23.33,39.02-1.83,4.39-3.45,8.84-4.86,13.35-6.11,19.55-8.4,40.16-8.41,61.1,0,25.77,3.44,52.02,7.48,77.37,2.4,15.02,4.97,30,7.68,44.95,1.81,9.97,3.69,19.92,5.63,29.85,1.94,9.94,3.95,19.86,6.01,29.77,1.03,4.95,2.07,9.91,3.13,14.85,2.12,9.9,4.28,19.78,6.5,29.65,13.31,59.23,28.36,118.05,44.01,176.65,2.61,9.77,5.23,19.53,7.87,29.28,1.32,4.88,2.64,9.75,3.96,14.63,9.26,34.12,18.63,68.19,27.87,102.24,11.18,41.23,23.87,82.63,36.8,124.24,3.04,9.79,6.09,19.59,9.14,29.41,1.52,4.91,3.05,9.82,4.57,14.73,2.28,7.37,4.55,14.74,6.81,22.13,5.27,17.23,10.47,34.49,15.5,51.79.72,2.47,1.43,4.94,2.15,7.42,21.35,74.19,39.4,149.08,47.1,224.8,1.4,13.84,2.34,27.78,2.81,41.76.12,3.5.2,6.99.26,10.49.06,3.5.08,7,.07,10.5-.03,21.01-1.16,42.05-3.44,62.93-1.9,17.4-4.6,34.68-8.13,51.74-1.41,6.83-2.96,13.61-4.64,20.36-.84,3.37-1.71,6.74-2.62,10.09-2.73,10.05-5.76,20-9.1,29.83-1.11,3.27-2.26,6.53-3.45,9.78-9.48,25.96-21.2,50.95-35.3,74.54-3.83,6.4-7.81,12.68-11.94,18.82-12.38,18.42-26.06,35.65-40.87,51.54-6.17,6.62-12.53,13.01-19.08,19.16-1.31,1.23-2.63,2.45-3.95,3.66-3.97,3.63-8,7.17-12.1,10.62-1.37,1.15-2.74,2.29-4.12,3.42-4.14,3.39-8.33,6.69-12.59,9.9-2.84,2.14-5.7,4.23-8.59,6.29-4.33,3.08-8.72,6.07-13.16,8.96-2.96,1.93-5.94,3.81-8.95,5.65-3.01,1.84-6.03,3.64-9.08,5.39-15.25,8.76-31.05,16.42-47.29,22.89-3.25,1.29-6.51,2.54-9.8,3.74-4.92,1.8-9.88,3.48-14.88,5.06-18.32,5.78-37.1,10.08-56.22,12.78-145.99,20.64-265.22-47.28-362.81-158.01-1.07-1.22-2.14-2.44-3.21-3.67-27.75-31.9-53.74-67.26-78.09-105.01-.94-1.45-1.87-2.91-2.8-4.37-8.38-13.13-16.57-26.54-24.57-40.19-.89-1.52-1.77-3.04-2.66-4.56-2.65-4.57-5.28-9.16-7.89-13.77-.87-1.54-1.74-3.08-2.6-4.62-3.46-6.18-6.88-12.39-10.27-18.65-2.54-4.69-5.06-9.41-7.56-14.14-1.67-3.16-3.32-6.32-4.97-9.49-.82-1.59-1.65-3.17-2.47-4.76-2.46-4.77-4.9-9.56-7.31-14.37-2.42-4.81-4.82-9.63-7.19-14.46-9.51-19.35-18.7-38.93-27.59-58.65-2.22-4.93-4.42-9.87-6.61-14.81-1.46-3.3-2.9-6.6-4.34-9.9-.72-1.65-1.44-3.3-2.15-4.95-1.43-3.3-2.85-6.61-4.27-9.92-2.12-4.96-4.22-9.93-6.3-14.9-1.39-3.31-2.77-6.63-4.14-9.94-.69-1.66-1.37-3.31-2.05-4.97-1.36-3.31-2.72-6.63-4.07-9.94-.67-1.66-1.35-3.31-2.02-4.97-2.68-6.63-5.33-13.25-7.94-19.87-3.92-9.93-7.77-19.85-11.56-29.74-1.26-3.3-2.51-6.59-3.76-9.88-7.47-19.75-14.66-39.37-21.58-58.77-1.15-3.23-2.3-6.46-3.44-9.68-1.14-3.22-2.27-6.43-3.4-9.64-1.12-3.21-2.24-6.4-3.35-9.6-.56-1.6-1.11-3.19-1.66-4.78-1.1-3.18-2.2-6.36-3.29-9.53-24.49-71.26-45.35-138.23-63.21-195.39-43.27-138.5-79.51-279.25-110.78-421.37-2.32-10.53-4.61-21.06-6.87-31.6-2.26-10.54-4.5-21.09-6.71-31.65-3.32-15.83-6.57-31.68-9.78-47.55-3.2-15.86-6.35-31.74-9.45-47.63-1.03-5.3-2.06-10.59-3.08-15.89-7.14-37.1-14.01-74.26-20.63-111.48-1.89-10.63-3.77-21.27-5.62-31.91-15.76-90.45-30.14-181.18-43.67-271.98-5.93-39.82-11.66-79.54-17.1-119.23-1.36-9.92-2.7-19.84-4.02-29.76-3.96-29.75-7.74-59.5-11.3-89.26-9.5-79.37-17.44-158.89-23.07-239.09-3.91-55.81-7.13-111.68-9.63-167.59-1.5-33.55-2.74-67.11-3.71-100.69-.02-.8-.03-1.76-.03-2.86,0-.74,0-1.55.01-2.42.01-1.31.04-2.76.08-4.35,0-.43,0-.86.03-1.27.05-3.95.19-8.61.36-13.92.03-.78.05-1.58.07-2.39.02-.81.04-1.63.07-2.47.05-1.6.1-3.24.16-4.93.17-5.05.36-10.48.57-16.21.06-1.99.14-4.01.2-6.06.22-6.19.44-12.68.67-19.38H0v1165c73.17,363.18,169.15,721.32,288.73,1069.45,84.19,245.03,191.02,500.65,390.38,659.05,45.76,36.37,95.55,66.89,147.61,89.98h423.81c15-7.73,29.8-16.42,44.37-26.13,320.9-213.69,231.18-596.14,248.22-937.3Z"/><path class="cls-1" d="M327.44,4.93c1.09,13.07,2.21,26.14,3.33,39.18.23,2.66.46,5.32.69,7.98,1.04,12.02,2.08,24.05,3.16,36.05.35,3.92.71,7.83,1.06,11.74.98,11.02,1.97,22.03,2.98,33.05,1.11,12.21,2.27,24.43,3.42,36.66.25,2.59.49,5.18.73,7.77.62,6.5,1.26,12.99,1.89,19.49,5.1,52.73,10.47,105.48,16.23,158.18,1.04,9.69,2.11,19.4,3.23,29.09,1.66,14.93,3.36,29.84,5.08,44.74.67,5.82,1.34,11.64,2.03,17.46.27,2.39.56,4.78.84,7.17.65,5.52,1.31,11.04,1.97,16.54.74,6.38,1.51,12.76,2.29,19.14.19,1.6.38,3.2.57,4.8.02.2.05.41.08.61.62,5.19,1.27,10.36,1.92,15.55.54,4.44,1.11,8.89,1.66,13.34.6,4.83,1.18,9.65,1.8,14.47.1.76.19,1.52.29,2.28.8,6.42,1.61,12.82,2.43,19.22.24,1.84.47,3.69.71,5.53.8,6.26,1.61,12.53,2.41,18.78.06.46.12.93.18,1.39.7,5.33,1.39,10.64,2.12,15.97.09.69.19,1.38.28,2.07,1.23,9.39,2.49,18.79,3.77,28.18,1.02,7.61,2.05,15.21,3.1,22.8.72,5.19,1.44,10.37,2.18,15.55,1.83,13.32,3.71,26.61,5.62,39.91.24,1.63.47,3.25.7,4.87.52,3.61,1.04,7.21,1.56,10.81.31,2.14.62,4.28.94,6.41,1.07,7.36,2.16,14.71,3.26,22.1,1.03,6.93,2.07,13.85,3.12,20.77.77,5.11,1.54,10.22,2.33,15.33.83,5.44,1.67,10.88,2.52,16.32,1.21,7.81,2.42,15.61,3.65,23.41.72,4.6,1.44,9.21,2.17,13.8,2.25,14.23,4.55,28.4,6.88,42.61.11.68.22,1.39.34,2.1,2.3,13.95,4.63,27.92,7.02,41.87,1.56,9.21,3.15,18.4,4.75,27.6,2.21,12.76,4.45,25.52,6.74,38.27.89,5.08,1.82,10.16,2.74,15.25.32,1.79.65,3.58.97,5.37,1.38,7.73,2.81,15.45,4.24,23.18,1.32,7.1,2.64,14.2,3.96,21.3,1.09,5.87,2.2,11.74,3.32,17.6,1.69,8.9,3.39,17.8,5.14,26.71.87,4.57,1.77,9.14,2.66,13.7.45,2.32.9,4.66,1.36,6.98.14.77.31,1.53.45,2.3,1.38,6.9,2.75,13.78,4.13,20.65,6.89,34.5,14.05,68.93,21.46,103.29,6.75,31.28,13.72,62.5,20.92,93.64,1.71,7.43,3.45,14.86,5.2,22.29,1.13,4.78,2.25,9.55,3.4,14.32.15.62.3,1.23.44,1.85,1.94,8.22,3.89,16.43,5.88,24.62,46.6,192.68,101.58,386.78,167.06,573.58,5.58,15.93,11.23,31.81,16.97,47.62,7.18,19.79,14.82,40.41,23.04,61.43.03.08.06.15.09.23.01.03.02.06.04.09,31.5,80.55,71.39,166.79,125.52,233.85,45.08,55.84,100.03,98.37,168.26,113.23,56.02,12.22,112.62-2.64,155.64-42.88,2.87-2.68,5.68-5.48,8.42-8.39,93.29-98.93,90.4-261.12,64.42-386.04-17.41-83.68-46.25-163.83-75.85-243.05-8.31-22.25-16.63-44.49-24.96-66.72-23.25-62.04-46.58-124.03-69.84-186.07-9.43-25.18-18.92-50.66-28.11-76.41-.01-.03-.02-.07-.04-.1-.01-.03-.02-.07-.04-.1-49.67-139.18-90.43-286.17-64.18-435.94,11.46-65.35,38.11-129.14,77.17-179.91,31.25-40.62,70.44-72.9,116.14-91,1.63-.65,3.27-1.27,4.92-1.88,160.18-59.19,353.92,46.84,491.47,130.18,99.5,60.3,189.75,139.24,302.9,166.36,125.08,29.99,254.26,28.71,366.06-8.73,116.82-39.12,214.66-117.73,269.01-241.38,21.67-49.29,36.44-105.74,42.73-169.71,8.65-87.98,5.32-180.13-5.11-265.69-8.21-67.4-20.83-130.71-35.48-184.68-1.41-5.21-2.84-10.34-4.29-15.37-1.24-4.32-2.5-8.61-3.79-12.92-1.1-3.61-2.19-7.24-3.31-10.85-1.07-3.44-2.17-6.87-3.26-10.3-.46-1.44-.91-2.89-1.37-4.33-.06-.2-.13-.39-.19-.59-.97-3.04-1.95-6.05-2.95-9.06-.57-1.74-1.15-3.45-1.72-5.17-.13-.39-.26-.78-.39-1.17-.45-1.31-.9-2.61-1.35-3.92-.1-.31-.21-.62-.32-.93-.83-2.45-1.67-4.89-2.52-7.34-.84-2.41-1.69-4.8-2.53-7.21-1.11-3.1-2.22-6.2-3.36-9.27-.07-.19-.14-.39-.21-.58-.05-.15-.11-.29-.16-.44-1.38-3.79-2.77-7.55-4.18-11.31,0-.01-.01-.03-.02-.04-.57-1.52-1.14-3.03-1.72-4.54-.92-2.39-1.84-4.79-2.77-7.19-1.24-3.15-2.47-6.33-3.71-9.49-.83-2.05-1.64-4.07-2.46-6.09-.12-.31-.25-.62-.37-.92-.24-.59-.48-1.17-.72-1.76-.82-2.01-1.64-4.02-2.46-6.02h-152.98c.42.62.83,1.24,1.23,1.84,5.03,7.5,9.97,15.05,14.83,22.67,74.05,115.52,127.49,270.72,125.61,416.97-.03,2.27-.08,4.54-.14,6.82-.09,3.98-.22,7.95-.42,11.93-.17,4.15-.42,8.29-.7,12.44-.11,1.87-.25,3.72-.42,5.57-.17,2.24-.37,4.46-.56,6.7-.2,2.05-.39,4.12-.62,6.16-.03.48-.08.94-.14,1.42-.34,3.32-.73,6.67-1.15,10-.31,2.27-.62,4.54-.93,6.82-.28,1.99-.59,4-.9,5.99-.08.62-.17,1.25-.28,1.85-.34,2.19-.7,4.35-1.07,6.5-.22,1.28-.45,2.58-.67,3.86-.28,1.62-.59,3.24-.9,4.86-.31,1.56-.62,3.12-.93,4.72-.14.74-.28,1.48-.45,2.22-.06.28-.11.57-.17.85-.67,3.3-1.4,6.59-2.16,9.86-.93,3.89-1.88,7.78-2.86,11.65-1.01,3.86-2.08,7.73-3.17,11.53-1.26,4.32-2.58,8.61-3.96,12.87-.45,1.42-.93,2.81-1.4,4.23-2.7,8.04-5.65,15.99-8.87,23.83-.53,1.33-1.07,2.67-1.66,4-.31.77-.65,1.53-.98,2.3-.59,1.39-1.18,2.78-1.8,4.18-.79,1.79-1.57,3.55-2.39,5.31-.59,1.28-1.18,2.53-1.8,3.81-.79,1.7-1.6,3.38-2.44,5.06-1.04,2.1-2.11,4.23-3.17,6.33-.28.54-.59,1.11-.87,1.65-.93,1.76-1.85,3.52-2.81,5.25-.22.45-.48.91-.73,1.36-1.12,2.07-2.27,4.12-3.45,6.14-1.24,2.19-2.5,4.32-3.76,6.48-1.6,2.67-3.26,5.34-4.94,7.98-1.21,1.9-2.44,3.78-3.68,5.65-2.53,3.86-5.2,7.7-7.92,11.5-.11.17-.22.31-.34.48-.62.85-1.21,1.68-1.83,2.5-1.24,1.65-2.44,3.29-3.71,4.94-1.6,2.13-3.23,4.23-4.89,6.31-1.69,2.1-3.37,4.18-5.08,6.22-1.46,1.79-2.95,3.52-4.47,5.28-.48.57-.98,1.14-1.46,1.68-1.54,1.76-3.12,3.49-4.69,5.25-1.97,2.16-3.96,4.29-5.98,6.39-1.74,1.82-3.51,3.64-5.31,5.43-4.07,4.12-8.28,8.15-12.64,12.1-1.83,1.68-3.65,3.32-5.53,4.94-2.11,1.85-4.24,3.69-6.4,5.51-1.94,1.62-3.9,3.24-5.9,4.86-1.99,1.59-3.99,3.18-6.04,4.74-1.07.82-2.13,1.65-3.23,2.47-1.71,1.31-3.43,2.58-5.17,3.83-2.27,1.7-4.61,3.35-6.96,5-51.14,35.73-104.89,50.84-159.43,50.84-2.36,0-4.72-.03-7.08-.09-2.36-.06-4.75-.14-7.1-.26h-.06c-2.36-.11-4.72-.26-7.08-.43-2.39-.17-4.75-.34-7.13-.57-2.61-.26-5.25-.54-7.89-.82-2.13-.26-4.24-.54-6.37-.82h-.03c-2.19-.31-4.41-.62-6.6-.97-5.05-.8-10.14-1.7-15.22-2.73-2.25-.45-4.49-.94-6.71-1.42h-.06c-2.39-.54-4.75-1.08-7.1-1.65-2.39-.57-4.77-1.16-7.13-1.79-.03.03-.03,0-.06,0-4.75-1.22-9.49-2.56-14.24-3.98h-.06c-2.33-.71-4.66-1.42-6.99-2.16-.06-.03-.11-.03-.17-.06-2.36-.74-4.69-1.51-7.05-2.3-1.6-.54-3.17-1.08-4.77-1.62-11.09-3.83-22.16-8.15-33.19-12.87-2.36-1.02-4.72-2.04-7.08-3.1-2.36-1.02-4.72-2.1-7.08-3.18-3.12-1.45-6.26-2.93-9.38-4.43h-.03c-2.36-1.14-4.69-2.27-7.02-3.44-2.36-1.16-4.69-2.36-7.05-3.55-3.12-1.59-6.21-3.21-9.32-4.86-1.54-.82-3.12-1.68-4.69-2.5-3.09-1.7-6.18-3.41-9.27-5.14-7.75-4.32-15.47-8.83-23.14-13.49-3.06-1.87-6.09-3.75-9.15-5.65-3.06-1.9-6.12-3.83-9.15-5.79-3.03-1.96-6.07-3.95-9.07-5.94h-.03c-3.4-2.24-6.8-4.52-10.17-6.82-5.08-3.44-10.14-6.9-15.16-10.48-5.03-3.52-10.03-7.16-15.02-10.79-3.06-2.22-6.12-4.49-9.15-6.76-.39-.28-.79-.57-1.18-.88-3.15-2.36-6.32-4.74-9.46-7.16-6.54-4.97-13.06-10.06-19.49-15.2-3.23-2.56-6.43-5.11-9.63-7.73-3.2-2.58-6.37-5.2-9.55-7.81-3.17-2.61-6.35-5.23-9.46-7.87-3.06-2.56-6.09-5.11-9.13-7.73-1.74-1.45-3.45-2.93-5.17-4.4-2.5-2.13-5-4.29-7.47-6.45-5.45-4.74-10.84-9.52-16.2-14.26-4.52-4.03-9.01-8.1-13.45-12.16-3.45-3.1-6.85-6.25-10.25-9.37-2.58-2.39-5.17-4.77-7.72-7.16-2.27-2.1-4.49-4.2-6.74-6.31-7.27-6.82-14.43-13.63-21.45-20.42-2.36-2.27-4.69-4.54-7.02-6.79-5.84-5.65-11.57-11.28-17.19-16.84-2.64-2.59-5.25-5.17-7.83-7.75-15.5-15.4-30.19-30.34-43.98-44.42-166.02-169.83-424.97-500.11-685.44-332.95-370.72,237.94-186.47,957.78-51.59,1290.54,43.39,107.03,205.26,387.52,172.31,551.21-.53,2.73-1.15,5.4-1.8,8.04v.03c-.65,2.64-1.38,5.25-2.13,7.84-.76,2.58-1.57,5.11-2.47,7.64-.45,1.25-.9,2.5-1.38,3.72-.93,2.47-1.94,4.91-2.98,7.33-2.11,4.8-4.47,9.43-7.08,13.92-1.32,2.24-2.67,4.43-4.1,6.59-1.43,2.16-2.92,4.29-4.49,6.36-1.57,2.07-3.2,4.09-4.89,6.08-.73.91-1.52,1.79-2.3,2.64l-.93,1.02c-.67.74-1.35,1.45-2.02,2.16h-.03c-21.76,22.5-54.82,24.51-82.73,17.72-1.32-.31-2.64-.65-3.96-1.02-1.46-.4-2.92-.82-4.35-1.25-2.44-.74-4.86-1.56-7.25-2.41-1.52-.54-3-1.11-4.49-1.7-4.47-1.79-8.85-3.78-13.09-5.96-.95-.48-1.88-.97-2.81-1.48-2.81-1.51-5.59-3.1-8.28-4.8-1.83-1.11-3.62-2.27-5.39-3.47-1.32-.91-2.64-1.82-3.96-2.76-1.29-.94-2.61-1.87-3.88-2.84-.9-.65-1.77-1.33-2.64-2.02-.81-.62-1.6-1.28-2.39-1.9-3.4-2.76-6.68-5.62-9.91-8.61-1.21-1.14-2.39-2.27-3.57-3.41-1.18-1.14-2.36-2.33-3.51-3.49-1.21-1.22-2.39-2.44-3.57-3.72-1.88-1.99-3.74-4-5.53-6.08-.08-.09-.14-.17-.22-.26-.67-.77-1.32-1.53-1.99-2.3-3.23-3.78-6.37-7.67-9.44-11.7-2.08-2.7-4.1-5.48-6.12-8.29-1.04-1.48-2.08-2.95-3.09-4.43-6.68-9.71-12.97-20-18.93-30.68-1.18-2.1-2.36-4.26-3.51-6.42-1.74-3.24-3.43-6.48-5.11-9.77-.95-1.87-1.91-3.78-2.86-5.71-.96-1.96-1.91-3.92-2.86-5.91-1.66-3.47-3.31-6.96-4.91-10.48-1.63-3.52-3.2-7.04-4.75-10.62-.17-.37-.34-.74-.51-1.14-1.99-4.6-3.96-9.26-5.87-13.92-8.65-21.05-16.48-42.61-23.79-63.91-.98-2.87-1.94-5.74-2.89-8.58-2.56-7.58-5.05-15.17-7.5-22.64-.98-2.98-1.94-5.96-2.89-8.95-7.22-22.27-13.96-43.71-20.56-63.34-.84-2.53-1.69-5.06-2.56-7.53-1.57-4.57-3.12-9.03-4.69-13.38-133.45-370.64-214.44-774.07-211.97-1174.59.03-5.94.08-11.87.17-17.84.06-5.94.17-11.87.28-17.81.06-4.09.14-8.21.25-12.3.08-3.64.17-7.24.25-10.88.03-1.42.08-2.81.14-4.2.14-5.51.31-10.99.51-16.47,0-.6.03-1.16.06-1.73.14-4.4.31-8.81.51-13.18.11-3.27.25-6.53.39-9.8.22-5.51.48-11.02.76-16.53.2-4.15.39-8.27.65-12.41.87-16.79,1.91-33.55,3.15-50.28.34-4.77.7-9.52,1.07-14.26.59-7.92,1.24-15.85,1.94-23.77.39-4.52.79-9.03,1.21-13.58.14-1.59.28-3.21.45-4.83.51-5.45,1.01-10.91,1.57-16.36.51-5.11,1.04-10.25,1.57-15.37.39-3.75.79-7.5,1.21-11.25.11-.97.2-1.96.34-2.95.59-5.4,1.21-10.82,1.85-16.22.53-4.8,1.12-9.6,1.71-14.37.42-3.35.81-6.7,1.26-10.03.45-3.64.93-7.27,1.4-10.91.7-5.37,1.4-10.74,2.16-16.11,1.68-12.24,3.45-24.48,5.34-36.7.28-1.93.59-3.89.9-5.82.76-5,1.54-9.97,2.36-14.94,1.29-8.01,2.61-16.02,3.99-24.03.76-4.46,1.54-8.92,2.33-13.38.28-1.68.59-3.38.9-5.06.62-3.47,1.24-6.93,1.88-10.37.7-3.83,1.4-7.64,2.13-11.48.87-4.77,1.8-9.52,2.72-14.29.81-4.2,1.63-8.41,2.5-12.58.65-3.3,1.32-6.59,1.99-9.88.2-1.08.42-2.19.67-3.27.96-4.69,1.94-9.4,2.92-14.12,1.27-5.96,2.55-11.92,3.87-17.89h-315.43c.13,1.62.27,3.23.4,4.85,0,.03,0,.05,0,.08Z"/><path class="cls-1" d="M59.52,2715.58c105.73-15.82,164.26-92.65,165.58-206.76,2.38-205.7-150.13-498-200.01-621.82-8.36-20.77-16.74-41.54-25.09-62.32v893.92c19.92.66,39.78-.06,59.52-3.02Z"/><path class="cls-1" d="M1985.18,2991.7h793.31c-49.24-31.53-99.03-61.29-153.74-80.69-213.66-75.66-435.25-12.11-639.57,80.69Z"/><path class="cls-1" d="M5611.84,2842.29c-71.7,36.46-134.41,89.29-191.04,149.4h579.2v-158.29c-5.64-2.58-11.35-5.05-17.1-7.41-120.76-49.31-254.37-42.97-371.06,16.3Z"/><path class="cls-1" d="M5986.1,380.01c-4.61-1.99-9.15-3.92-13.65-5.79-404.87-169.06-866.01-207.26-1271.66-20.34-178.86,82.4-342.64,205.99-470.16,366.44-72.57,91.32-120.59,198.37-149.26,314.69-27.44,111.34-24.88,235.3-62.29,342.61-64.76,185.85-219.83,313.38-399.03,338.89-221.66,31.53-446.23-26.93-669.8-1.39-188.13,21.5-383.21,86.8-541.74,207.66-75.96,57.94-155.69,142.08-206.58,227.23-51.14,85.55-54.51,200.65-124.12,273.99-90.68,95.49-87.87-162.19-88.77-193.49-4.55-160.54-58.55-482.16,117.67-561.41,83.29-37.52,178.04-15.45,264.4-6.33,207.92,22.07,429.16-1.68,604.81-135.32,159.03-120.94,262.74-310.2,336.88-501.79,84.84-219.22,147.97-471.19,147.97-717.17,0-3.89-.03-7.78-.06-11.7-.06-6.48-.14-12.92-.28-19.37-.06-2.13-.11-4.26-.17-6.42-.37-13.69-.93-27.38-1.71-41.02-.17-3.27-.36-6.5-.59-9.77-.2-3.24-.42-6.5-.67-9.74-.22-3.27-.48-6.5-.73-9.74-1.04-13.15-2.3-26.27-3.76-39.37-.34-3.07-.7-6.14-1.07-9.17-.34-2.84-.67-5.71-1.04-8.55-.39-3.01-.79-6.02-1.18-9.03-.51-3.83-1.04-7.64-1.6-11.45-.93-6.39-1.88-12.78-2.92-19.14-.42-2.73-.87-5.43-1.35-8.15-.11-.82-.25-1.65-.42-2.47-.39-2.41-.81-4.86-1.24-7.27-.22-1.14-.42-2.27-.62-3.41-.45-2.47-.9-4.94-1.38-7.39-.59-3.18-1.18-6.33-1.83-9.52-.62-3.15-1.24-6.33-1.91-9.49-.65-3.18-1.29-6.33-1.99-9.49-.45-2.19-.93-4.37-1.4-6.53-.73-3.29-1.49-6.59-2.25-9.88-.65-2.81-1.29-5.62-1.97-8.44-.08-.31-.17-.6-.22-.91-.87-3.64-1.77-7.27-2.7-10.91-.85-3.38-1.72-6.78-2.6-10.16h-257.13c31.61,135.94,46.05,276.65,43.21,416.93-4.35,217.38-49.9,435.26-137.52,630.94-77.23,172.47-192,335-349.96,426.09-89.05,51.38-188.21,73.74-288.58,72.74-55.01-.57-109.83-7.56-163.81-19.09-109.92-23.52-228.51-79.73-341.15-45.28-118.23,36.13-154.88,163.52-169.37,282.99-26.62,219.05,23.48,444.18-24.15,660.82-20.58,93.7-80.93,175.14-93.54,269.92-16.85,126.62,79.87,191.59,185.12,170.94,49.29-9.69,97.33-30.9,144.09-50.02,133.34-54.54,245.36-135.06,298.01-282.93,17.75-49.91,30.08-101.77,44.88-152.7,12.81-44.11,27.44-87.66,44.65-129.89,72-176.62,195.17-330.14,384.14-339.06,236.79-11.13,471.37,69.59,708.58,70.33,209.61.65,509.39-19.77,661.63-201.58,129.32-154.4,120.28-390.67,122.78-585.75,3-235.98,167.12-398.17,336.37-516.13,218.79-152.53,472.41-282.59,736.55-288.13,232.41-4.91,470.97,50.76,692.07,146.71v-151.82h0c-2.36-1.02-4.69-2.05-6.99-3.04-2.3-1.02-4.6-2.02-6.91-2.98Z"/><path class="cls-1" d="M4425.3,15.7c-93.6,58.11-172.85,139.35-255.24,214.02-69.7,63.11-150.16,164.32-247.18,178.58-138.42,20.37-121.34-136.62-113.93-240.5,3.37-47.35,5.17-91.29,4.8-134.29-.03-2.76-.06-5.54-.11-8.27-.06-5.06-.17-10.11-.31-15.17-.08-3.35-.19-6.72-.33-10.07h-190.28c.13.74.28,1.47.4,2.21.62,3.12,1.21,6.25,1.77,9.4.37,2.02.73,4.06,1.1,6.11.03.2.08.4.11.62.7,3.92,1.38,7.87,2.02,11.82.84,5.08,1.66,10.17,2.44,15.28.62,4.06,1.24,8.12,1.8,12.19.36,2.39.7,4.77,1.01,7.16.56,3.95,1.07,7.87,1.57,11.79.59,4.52,1.12,9.03,1.66,13.55.14,1.22.28,2.44.42,3.69.51,4.37.98,8.75,1.43,13.15.53,5.11,1.04,10.25,1.52,15.37v.11c.48,5.17.93,10.34,1.32,15.51.42,5.17.81,10.34,1.15,15.54.31,4.52.59,9.06.87,13.61.06,1.02.11,2.05.17,3.04.22,4.32.45,8.61.65,12.92.06,1.08.11,2.16.14,3.24.2,4.63.39,9.29.53,13.95.2,5.37.34,10.74.45,16.13.08,3.81.14,7.64.2,11.48.03,1.93.06,3.83.06,5.77.06,4.52.08,9.03.08,13.55,0,7.44-.06,14.88-.17,22.33-2.7,174.86-12.81,357.27-47.88,528.14-22.3,108.62-58.05,215.64-114.13,309.12-60.49,100.78-165.18,246.26-70.85,364.74,78.8,98.99,221.54,70.07,312.95,10.17,117.64-77.09,149.34-215.9,148.28-358.46-1.83-249.22,2.41-444.38,183.63-623.44,315.68-311.9,772.3-434.01,1219.23-429.36,3.65.03,7.33.06,10.98.11,10.47.17,20.95.4,31.42.71,3.51.09,7.02.2,10.56.31,4.3.14,8.59.28,12.86.45,3.96.14,7.89.31,11.82.48,19.4.82,38.81,1.9,58.13,3.18,3.59.26,7.22.51,10.81.77,13.51.97,26.99,2.05,40.44,3.24,2.7.23,5.39.45,8.06.71,12.38,1.14,24.74,2.36,37.04,3.66,11.06,1.19,22.07,2.44,33.08,3.78,4.97.6,9.91,1.22,14.86,1.82,3.73.48,7.47.97,11.21,1.48,3.99.51,7.95,1.05,11.93,1.59,3.03.4,6.09.82,9.13,1.25,4.89.71,9.77,1.39,14.66,2.13,3.96.57,7.92,1.14,11.88,1.76,3.96.6,7.89,1.19,11.82,1.82,3.96.6,7.89,1.22,11.82,1.87,3.93.62,7.86,1.28,11.79,1.93,3.93.65,7.86,1.31,11.77,1.99,23.5,4.03,46.84,8.38,69.98,13.07,3.88.77,7.72,1.53,11.57,2.36.34.06.65.11.98.2,10.76,2.22,21.48,4.52,32.15,6.9,8.09,1.79,16.15,3.61,24.18,5.48,3.79.88,7.58,1.76,11.35,2.67,3.79.88,7.55,1.79,11.32,2.73,3.06.71,6.09,1.48,9.13,2.22,4.49,1.11,8.96,2.24,13.42,3.38,3.73.94,7.47,1.87,11.21,2.87,3.73.94,7.47,1.93,11.18,2.93,3.73.97,7.44,1.96,11.15,2.95,3.71.99,7.39,2.02,11.09,3.04,7.39,2.02,14.72,4.06,22.04,6.16,3.68,1.05,7.33,2.1,10.98,3.18,18.25,5.28,36.34,10.79,54.2,16.53,7.16,2.27,14.27,4.57,21.34,6.93V0h-1548.8c-8.7,5.14-17.31,10.36-25.9,15.7Z"/><path class="cls-1" d="M4877.57,720.54c-174.93,68.2-337.02,188.64-444.04,356.28-53.53,83.82-90.6,178.52-108.85,278.76-20.11,110.21-21.88,222.98-34.94,334.23-18.25,155.08-65.57,291.26-188.71,378.82-171.73,122.08-359.15,113.07-554.55,95.72-288.55-25.65-725.43-122.62-956.16,103.4-63.27,61.95-107.61,149.83-110.3,242.6-11.69,398.3,773.73,251.15,963.59,270.63,146.54,15.03,290.38,62.4,383.39,195.16,3.61,5.15,7.12,10.33,10.55,15.56h340.41c-.95-3.1-1.92-6.21-2.91-9.3-.38-1.22-.78-2.45-1.17-3.67-.53-1.63-1.06-3.26-1.6-4.89-.49-1.48-.99-2.96-1.49-4.45-.57-1.68-1.14-3.36-1.72-5.05-.49-1.41-.98-2.81-1.48-4.23-.88-2.49-1.77-4.97-2.68-7.46-.34-.93-.69-1.88-1.04-2.81-.44-1.17-.87-2.34-1.32-3.51-.52-1.38-1.05-2.75-1.57-4.13-.69-1.77-1.38-3.53-2.09-5.29-1.12-2.83-2.27-5.65-3.45-8.45-.13-.31-.26-.63-.39-.93-.53-1.25-1.06-2.51-1.6-3.76-.55-1.28-1.11-2.57-1.67-3.84-.24-.56-.49-1.1-.73-1.65-1.15-2.6-2.33-5.18-3.53-7.75-.68-1.45-1.36-2.9-2.06-4.36-1.38-2.88-2.8-5.76-4.25-8.61-.72-1.42-1.45-2.84-2.19-4.26s-1.49-2.82-2.24-4.23c-.07-.13-.14-.26-.21-.4-.69-1.26-1.38-2.53-2.08-3.79-.76-1.39-1.54-2.77-2.33-4.15-.79-1.38-1.59-2.75-2.39-4.12-1.47-2.49-2.97-4.96-4.5-7.4-.34-.55-.69-1.09-1.03-1.63-1.45-2.29-2.91-4.58-4.4-6.83-.05-.06-.09-.12-.13-.19-.87-1.3-1.76-2.61-2.65-3.9-.89-1.29-1.79-2.59-2.7-3.86-1.83-2.57-3.69-5.09-5.59-7.59-.94-1.24-1.9-2.49-2.87-3.71-.97-1.23-1.95-2.46-2.94-3.67-.05-.06-.1-.12-.14-.18-.9-1.09-1.8-2.18-2.71-3.25-.19-.24-.39-.48-.6-.72-.8-.95-1.62-1.9-2.44-2.83-.08-.1-.16-.19-.25-.29-1-1.15-2.02-2.29-3.04-3.42-.9-.99-1.81-1.98-2.73-2.96-.36-.39-.72-.78-1.1-1.16-.86-.92-1.73-1.83-2.61-2.73-1.04-1.07-2.09-2.13-3.15-3.18-.08-.07-.15-.15-.24-.24-1.09-1.07-2.19-2.15-3.31-3.21-1.05-.99-2.11-1.99-3.18-2.96-.23-.22-.46-.44-.7-.65-.81-.74-1.62-1.47-2.45-2.2-1.66-1.48-3.34-2.93-5.05-4.37-.87-.74-1.75-1.46-2.64-2.18-.17-.15-.35-.29-.52-.43-.87-.71-1.74-1.4-2.62-2.09-.42-.34-.84-.67-1.26-.99-1.1-.86-2.22-1.71-3.34-2.55-109.55-82.01-259.91-91.04-386.87-115.07-172.03-32.55-347.3-44.5-521.69-35.81-166.31,8.29-319.61,25.34-479.34-42.4-103.26-43.8-113.06-151.97-14.72-213.92,311.33-196.12,690.3-195.42,1034.82-138.41,185.23,30.65,370.04,64.16,555.56,92.49,138.02,21.13,347.26,75.38,422.1-99.64,64.17-150.09-9.4-313.35-71.89-446.86-36.64-78.29-73.49-158.72-86.66-246.35-11.01-73.28-5.62-148.53,13.62-219.65,40.27-148.95,136.2-278.02,254.63-362.14,134.43-95.44,295.87-135.78,454.01-148.13,160.66-12.53,325.92-2.08,484.06,31.42,17.32,3.66,34.62,7.7,51.84,12.09,2.47.63,4.97,1.28,7.47,1.94,7.8,2.04,15.61,4.18,23.39,6.38,3.43.96,6.85,1.96,10.28,2.95,8.65,2.54,17.3,5.2,25.92,7.96,2.67.83,5.33,1.7,8.03,2.59,6.15,1.99,12.27,4.06,18.39,6.2,5.59,1.93,11.18,3.92,16.74,5.94,1.35.51,2.7.99,4.04,1.5,2.64.96,5.28,1.93,7.92,2.95,3.35,1.25,6.69,2.53,10,3.84,2.75,1.04,5.48,2.13,8.23,3.23,3.9,1.53,7.78,3.12,11.65,4.74,2.67,1.08,5.31,2.19,7.98,3.32,12.66,5.37,25.25,10.97,37.69,16.88,2.86,1.33,5.7,2.7,8.53,4.09,2.05.96,4.08,1.96,6.07,2.95,2.41,1.19,4.8,2.36,7.19,3.58,1.99.99,3.99,2.02,5.95,3.04,2.08,1.04,4.13,2.1,6.18,3.18v-203.46c-125.47-42.52-260.75-64.19-380.15-79.62-237.36-30.64-514.62-35.27-742.28,53.48Z"/><path class="cls-1" d="M5993.46,2363.54c-2.19-.62-4.38-1.21-6.57-1.81-9.75-2.68-19.55-5.14-29.38-7.42-2.19-.51-4.41-1.02-6.6-1.5-1.96-.43-3.9-.86-5.87-1.28-12.58-2.69-25.22-5.08-37.91-7.16-1.35-.22-2.67-.42-4.01-.65-3.29-.52-6.6-.99-9.89-1.48-2.08-.31-4.18-.6-6.26-.88-1.35-.17-2.7-.37-4.05-.55-4.77-.62-9.54-1.21-14.32-1.73-1.57-.17-3.12-.34-4.69-.51-1.29-.14-2.61-.29-3.93-.4-7.19-.72-14.38-1.33-21.57-1.85-2.52-.2-5.05-.37-7.58-.51-2.5-.15-5.03-.29-7.55-.43-2.31-.12-4.61-.23-6.94-.31-1.26-.06-2.53-.09-3.79-.15-2.25-.08-4.52-.17-6.77-.23-111.12-3.03-222.58,18.78-324.07,68.97-1.93.95-3.86,1.92-5.77,2.89-1.41.71-2.81,1.43-4.21,2.16-4.41,2.27-8.76,4.57-13.05,6.92-1.67.91-3.33,1.83-4.99,2.75-.15.08-.3.17-.45.26-1.76.97-3.51,1.97-5.25,2.96-1.44.82-2.87,1.64-4.29,2.48-.71.41-1.42.83-2.13,1.24-1.22.72-2.44,1.44-3.65,2.17-2.15,1.27-4.29,2.57-6.4,3.87-1.39.86-2.77,1.71-4.15,2.57-.48.3-.95.6-1.42.89-1.49.93-2.98,1.88-4.45,2.82-1.72,1.1-3.43,2.21-5.13,3.32-1.44.94-2.87,1.89-4.3,2.84-.26.17-.51.34-.77.52-1.66,1.11-3.31,2.23-4.96,3.35-.04.03-.08.06-.12.09-1.44.97-2.87,1.97-4.3,2.96-.24.17-.49.34-.74.52-1.34.93-2.68,1.88-4.01,2.82-3.09,2.2-6.14,4.42-9.16,6.65-.74.55-1.48,1.1-2.22,1.66-1.28.94-2.56,1.91-3.83,2.87-1.32,1-2.65,2.02-3.96,3.03-3.47,2.68-6.89,5.38-10.27,8.12-1.34,1.07-2.67,2.16-3.99,3.25-3.13,2.57-6.22,5.16-9.28,7.79-1.03.88-2.05,1.76-3.07,2.65-.51.44-1.02.89-1.53,1.33-1.03.9-2.05,1.8-3.07,2.7-.44.38-.88.77-1.31,1.16-1.46,1.29-2.92,2.6-4.36,3.91-1.35,1.23-2.7,2.47-4.04,3.71-1.06.97-2.12,1.96-3.18,2.95-.85.8-1.7,1.59-2.54,2.4-3.88,3.67-7.7,7.39-11.48,11.15-1.18,1.17-2.35,2.36-3.52,3.54-1.35,1.36-2.68,2.72-4.01,4.1-.22.22-.43.44-.64.66-1.12,1.15-2.23,2.31-3.33,3.47-1.32,1.38-2.63,2.76-3.93,4.16-1.31,1.39-2.6,2.78-3.89,4.19-1.29,1.4-2.58,2.8-3.85,4.22-.28.3-.56.61-.83.91-1,1.1-1.99,2.21-2.98,3.32-1.27,1.42-2.53,2.84-3.78,4.28-1.25,1.43-2.5,2.86-3.73,4.3-2.61,3.03-5.2,6.09-7.74,9.16-1.01,1.2-2.01,2.41-3,3.62-1.28,1.55-2.55,3.11-3.82,4.68-1.52,1.88-3.03,3.76-4.52,5.66-1.78,2.25-3.55,4.5-5.3,6.77-1.4,1.81-2.79,3.62-4.17,5.44-1.31,1.73-2.62,3.47-3.93,5.22-.61.82-1.21,1.62-1.8,2.44-1.11,1.48-2.21,2.97-3.29,4.48-1.75,2.39-3.48,4.78-5.2,7.2-1.26,1.77-2.52,3.55-3.77,5.33-1.56,2.22-3.11,4.45-4.65,6.69-1.43,2.07-2.84,4.16-4.25,6.25-1.12,1.65-2.23,3.3-3.33,4.96-.73,1.08-1.45,2.17-2.16,3.26-.24.37-.48.73-.72,1.09-1.96,2.97-3.9,5.97-5.83,8.97-.95,1.48-1.9,2.96-2.84,4.46-.11.17-.22.35-.34.53-.91,1.44-1.82,2.89-2.73,4.35-2.52,4.02-5.01,8.07-7.47,12.13-.89,1.44-1.76,2.88-2.63,4.34-2.61,4.36-5.2,8.73-7.76,13.13-.97,1.65-1.92,3.3-2.87,4.95-.95,1.65-1.9,3.3-2.84,4.96-1.9,3.31-3.77,6.64-5.63,9.98-.94,1.67-1.87,3.34-2.79,5.01-2.77,5.02-5.52,10.06-8.24,15.14-.91,1.69-1.81,3.38-2.71,5.08-.91,1.69-1.81,3.39-2.7,5.09-9.15,17.35-18.01,34.97-26.7,52.77-.67,1.36-1.33,2.72-1.99,4.1-.85,1.74-1.69,3.48-2.54,5.23-1.1,2.28-2.2,4.56-3.29,6.85-10.23,21.32-20.23,42.88-30.19,64.58-1.11,2.41-2.22,4.82-3.32,7.23-4.23,9.24-8.46,18.5-12.7,27.78-.82,1.79-1.64,3.58-2.46,5.38-1.11,2.45-2.23,4.9-3.35,7.35-1.34,2.92-2.68,5.85-4.02,8.77-1.35,2.96-2.71,5.92-4.07,8.88-1.94,4.24-3.89,8.46-5.85,12.7-1.69,3.68-3.39,7.35-5.1,11.02-1.63,3.51-3.27,7.03-4.91,10.55-.83,1.8-1.68,3.6-2.52,5.4-2.53,5.39-5.07,10.77-7.63,16.15h129.78c6.45-15.14,12.75-30.3,18.9-45.47,70.06-172.78,181.32-286,334.85-370.99,119.27-66.03,251.17-103.39,384.51-112.4,27.6-1.87,56.61.09,86.24,3.58v-101c-.56-.17-1.15-.34-1.71-.49-1.6-.48-3.23-.93-4.83-1.39Z"/><path class="cls-1" d="M5921.96,1418.29c-4.33-4-8.62-8.01-12.89-11.98-1.47-1.36-2.93-2.72-4.4-4.09-4.38-4.08-8.74-8.14-13.04-12.21-2.89-2.7-5.73-5.4-8.57-8.09-2.72-2.57-5.42-5.12-8.08-7.68-5.73-5.45-11.4-10.9-16.99-16.33-227.95-221.43-641.58-464.35-912.07-181.16-153.27,160.48-129.97,373.11-98.82,580.77,18.25,121.49,31.79,244.98,12.38,367.44-16.71,104.95-57.34,205.1-127.89,280.21-31.87,33.97-69.56,62.39-111.15,80.36-173.74,74.87-375.18-17.98-550.25-43.35-221.04-32.04-443.84-40.73-665.08-70.16-122.35-16.27-249.74-48.22-371.02-6.84-136.54,46.58,6.9,124.12,82.9,148.39,149.28,47.63,312.67,30.73,462.4,49.7,171.53,21.73,348.06,32.18,511.05,99.7,129.44,53.63,233.64,185.52,284.49,328.74h439.28c47.14-90.91,85.97-189.33,124.49-271.45,80.46-171.51,163.95-344.2,288.35-483.35,88.69-99.22,215.34-140.97,338.74-155.86,149.65-18.09,293.15,26.93,419.24,115.81,2.08,1.47,4.13,2.95,6.18,4.49,1.38,1.02,2.75,2.05,4.1,3.12,1.01.74,1.99,1.51,2.98,2.25.56.46,1.15.91,1.71,1.36v-85.7h0s-.02,0-.02-.01c-.05-.02-.12-.05-.17-.08-1.32-.63-2.63-1.29-3.93-1.95-.69-.35-1.39-.7-2.08-1.05-.74-.37-1.46-.76-2.19-1.14-1.22-.64-2.44-1.29-3.64-1.96-.1-.06-.21-.11-.31-.17-.08-.03-.16-.06-.22-.11-.66-.36-1.31-.72-1.97-1.08-.49-.27-.99-.56-1.48-.84-.54-.31-1.07-.61-1.61-.92-.16-.09-.32-.18-.48-.27-.54-.31-1.08-.61-1.62-.92-.51-.3-1.02-.61-1.53-.91-1.08-.64-2.16-1.27-3.25-1.93-2.67-1.61-5.31-3.28-7.94-4.97-1.28-.82-2.56-1.64-3.82-2.47-7.33-4.83-14.55-9.91-21.68-15.2-1.15-.82-2.27-1.68-3.4-2.53-1.62-1.19-3.23-2.42-4.83-3.64-.65-.49-1.29-.99-1.94-1.48-1.43-1.1-2.86-2.21-4.29-3.31-.81-.63-1.63-1.26-2.44-1.88-.23-.18-.45-.36-.68-.53-.89-.7-1.77-1.41-2.67-2.1-3.43-2.68-6.85-5.4-10.25-8.12-3.79-3.04-7.55-6.08-11.32-9.12-5.53-4.46-11.07-8.94-16.61-13.37-.11-.09-.22-.17-.32-.26-1.59-1.27-3.18-2.54-4.77-3.79-.29-.23-.58-.46-.88-.69-.21-.17-.42-.34-.64-.5-1.67-1.33-3.34-2.65-5.03-3.96-5.65-4.44-11.32-8.77-17.03-12.99-4.7-3.48-9.43-6.88-14.17-10.15-1.46-.99-2.89-1.99-4.35-2.95-1.15-.77-2.28-1.5-3.42-2.24-.34-.22-.67-.45-1.01-.66,0,0,0,0,0,0,0,0,0,0,0,0-.01-.02-.02-.02-.03-.04-.01-.02-.03-.04-.04-.05-.02-.02-.04-.02-.07-.02-.11-.07-.22-.14-.33-.22-1.6-1.05-3.21-2.09-4.81-3.09-.05-.03-.11-.07-.16-.1-.09-.05-.17-.1-.25-.16-.36-.23-.73-.46-1.09-.67-.86-.53-1.72-1.06-2.57-1.59-.79-.48-1.58-.96-2.37-1.42-1.4-.85-2.8-1.67-4.19-2.47-.57-.32-1.13-.65-1.7-.97-126.1-71.26-250.99-100.07-383.46-105.29-49.76-1.96-100.58-.6-152.95,3.1-61.74,4.35-109.26-11.54-143.62-40.32-51.52-43.15-73.47-115.3-69.43-191.73,1.19-22.41,4.61-45.18,10.17-67.7,14.64-59.24,44.11-116.72,86.78-161.08,102.61-106.65,255.51-83.16,372.99-20.87,8.05,4.27,15.93,8.71,23.62,13.31,24.02,14.37,47.28,30.14,70.14,46.6,19.47,14.02,38.66,28.53,57.78,43.13,104.89,80.1,209.27,161.05,313.63,242v-261.77h0c-19.32-18.13-38.56-35.88-57.43-53.31-6.94-6.39-13.79-12.73-20.61-19.06Z"/><path class="cls-1" d="M2203.18,410.09c222.98-36.94,142.12-228.52,6.38-410.09h-594.22c145.77,223,354.66,448.73,587.85,410.09Z"/></svg>